# xmcd
#
# Track frame offsets:
#	150
#	32363
#	61150
#	86763
#	115079
#	145326
#	172509
#	190603
#	219751
#	252164
#	276127
#	303223
#	323087
#
# Disc length: 4548 seconds
#
# Revision: 0
# Processed by: cddbd v1.5.2PL0 Copyright (c) Steve Scherf et al.
# Submitted via: audiograbber 1.83.01
#
DISCID=9d11c20d
DTITLE=Mohsin HAMID (Jörg Pohl) - So wirst du stinkreich im boomenden Asien (2v
DTITLE=4)
DYEAR=2013
DGENRE=Hörbuch - Humor
TTITLE0=11
TTITLE1=12
TTITLE2=13
TTITLE3=14
TTITLE4=15
TTITLE5=16
TTITLE6=17
TTITLE7=18
TTITLE8=19
TTITLE9=20
TTITLE10=21
TTITLE11=22
TTITLE12=23
EXTD=
EXTT0=
EXTT1=
EXTT2=
EXTT3=
EXTT4=
EXTT5=
EXTT6=
EXTT7=
EXTT8=
EXTT9=
EXTT10=
EXTT11=
EXTT12=
PLAYORDER=
